<svg id="visual" viewBox="0 0 960 540" width="960" height="540" xmlns="http://www.w3.org/2000/svg" xmlns:xlink="http://www.w3.org/1999/xlink" version="1.1"><rect x="0" y="0" width="960" height="540" fill="#f9c1f5"></rect><defs><linearGradient id="grad1_0" x1="43.8%" y1="0%" x2="100%" y2="100%"><stop offset="14.444444444444446%" stop-color="#ee41ee" stop-opacity="1"></stop><stop offset="85.55555555555554%" stop-color="#ee41ee" stop-opacity="1"></stop></linearGradient></defs><defs><linearGradient id="grad1_1" x1="43.8%" y1="0%" x2="100%" y2="100%"><stop offset="14.444444444444446%" stop-color="#ee41ee" stop-opacity="1"></stop><stop offset="85.55555555555554%" stop-color="#f689f2" stop-opacity="1"></stop></linearGradient></defs><defs><linearGradient id="grad1_2" x1="43.8%" y1="0%" x2="100%" y2="100%"><stop offset="14.444444444444446%" stop-color="#f9c1f5" stop-opacity="1"></stop><stop offset="85.55555555555554%" stop-color="#f689f2" stop-opacity="1"></stop></linearGradient></defs><defs><linearGradient id="grad2_0" x1="0%" y1="0%" x2="56.3%" y2="100%"><stop offset="14.444444444444446%" stop-color="#ee41ee" stop-opacity="1"></stop><stop offset="85.55555555555554%" stop-color="#ee41ee" stop-opacity="1"></stop></linearGradient></defs><defs><linearGradient id="grad2_1" x1="0%" y1="0%" x2="56.3%" y2="100%"><stop offset="14.444444444444446%" stop-color="#f689f2" stop-opacity="1"></stop><stop offset="85.55555555555554%" stop-color="#ee41ee" stop-opacity="1"></stop></linearGradient></defs><defs><linearGradient id="grad2_2" x1="0%" y1="0%" x2="56.3%" y2="100%"><stop offset="14.444444444444446%" stop-color="#f689f2" stop-opacity="1"></stop><stop offset="85.55555555555554%" stop-color="#f9c1f5" stop-opacity="1"></stop></linearGradient></defs><g transform="translate(960, 0)"><path d="M0 486C-54.2 453.6 -108.5 421.2 -165.3 399.1C-222.2 377.1 -281.7 365.4 -332.3 332.3C-383 299.3 -424.9 244.9 -449 186C-473.1 127 -479.6 63.5 -486 0L0 0Z" fill="#f8a6f4"></path><path d="M0 324C-36.2 302.4 -72.3 280.8 -110.2 266.1C-148.1 251.4 -187.8 243.6 -221.6 221.6C-255.3 199.5 -283.2 163.3 -299.3 124C-315.4 84.7 -319.7 42.3 -324 0L0 0Z" fill="#f26af0"></path><path d="M0 162C-18.1 151.2 -36.2 140.4 -55.1 133C-74.1 125.7 -93.9 121.8 -110.8 110.8C-127.7 99.8 -141.6 81.6 -149.7 62C-157.7 42.3 -159.9 21.2 -162 0L0 0Z" fill="#ee41ee"></path></g><g transform="translate(0, 540)"><path d="M0 -486C66.6 -483 133.1 -480 186 -449C238.8 -418 278 -358.9 306.2 -306.2C334.4 -253.5 351.6 -207.2 379.7 -157.3C407.9 -107.3 446.9 -53.7 486 0L0 0Z" fill="#f8a6f4"></path><path d="M0 -324C44.4 -322 88.8 -320 124 -299.3C159.2 -278.6 185.3 -239.2 204.1 -204.1C222.9 -169 234.4 -138.2 253.1 -104.9C271.9 -71.5 298 -35.8 324 0L0 0Z" fill="#f26af0"></path><path d="M0 -162C22.2 -161 44.4 -160 62 -149.7C79.6 -139.3 92.7 -119.6 102.1 -102.1C111.5 -84.5 117.2 -69.1 126.6 -52.4C136 -35.8 149 -17.9 162 0L0 0Z" fill="#ee41ee"></path></g></svg>